2.8Hzlow3min_grf.mot
version=1
nRows=15
nColumns 19
inDegrees=yes
endheader
time	1_ground_force_vx	1_ground_force_vy	1_ground_force_vz	1_ground_force_px	1_ground_force_py	1_ground_force_pz	1_ground_torque_x	1_ground_torque_y	1_ground_torque_z	2_ground_force_vx	2_ground_force_vy	2_ground_force_vz	2_ground_force_px	2_ground_force_py	2_ground_force_pz	2_ground_torque_x	2_ground_torque_y	2_ground_torque_z
            1.253500	          -37.836859	         1150.804621	         -120.115894	           -0.241728	            0.006228	           -0.406765	           -0.161717	            4.918597	           -0.513381	          -29.804970	         1094.584740	          130.624428	           -0.238232	            0.005641	           -0.702472	            0.069351	           -2.546903	           -0.303940
            1.254000	          -38.246775	         1144.312299	         -119.546574	           -0.241413	            0.006227	           -0.406720	           -0.164280	            4.915127	           -0.513485	          -30.439120	         1088.506807	          130.180678	           -0.238082	            0.005641	           -0.702395	            0.069216	           -2.475187	           -0.296022
            1.254500	          -38.243314	         1137.818925	         -118.657282	           -0.241207	            0.006227	           -0.406542	           -0.160601	            4.778219	           -0.498296	          -30.747814	         1083.165527	          130.114827	           -0.237740	            0.005642	           -0.702457	            0.071343	           -2.513235	           -0.301901
            1.255000	          -38.239738	         1131.325110	         -117.722139	           -0.240857	            0.006227	           -0.406529	           -0.160443	            4.746731	           -0.493930	          -30.778338	         1078.564001	          129.441427	           -0.237393	            0.005645	           -0.702732	            0.072834	           -2.552310	           -0.306310
            1.255500	          -38.098246	         1125.191372	         -116.602366	           -0.240609	            0.006226	           -0.406428	           -0.160876	            4.751291	           -0.492371	          -30.902456	         1073.961299	          129.002715	           -0.237100	            0.005646	           -0.702874	            0.068641	           -2.385495	           -0.286542
            1.256000	          -38.232296	         1119.238297	         -115.664548	           -0.240304	            0.006226	           -0.406325	           -0.161177	            4.718407	           -0.487611	          -31.114296	         1067.701054	          128.558114	           -0.236946	            0.005647	           -0.702830	            0.066046	           -2.266383	           -0.272887
            1.256500	          -38.182021	         1112.382766	         -114.410068	           -0.240047	            0.006226	           -0.406329	           -0.160200	            4.667221	           -0.480030	          -31.095933	         1062.546879	          127.976579	           -0.236646	            0.005648	           -0.702800	            0.062645	           -2.140584	           -0.257819
            1.257000	          -38.499000	         1104.626985	         -113.433686	           -0.239769	            0.006227	           -0.406487	           -0.161639	            4.637806	           -0.476254	          -31.082161	         1058.681248	          127.540436	           -0.236480	            0.005649	           -0.703012	            0.064022	           -2.180641	           -0.262704
            1.257500	          -38.036440	         1098.853264	         -112.221446	           -0.239461	            0.006226	           -0.406278	           -0.160734	            4.643524	           -0.474224	          -31.250053	         1053.159499	          126.535306	           -0.236191	            0.005650	           -0.703060	            0.062001	           -2.089497	           -0.251049
            1.258000	          -37.665650	         1092.899547	         -111.055617	           -0.239226	            0.006225	           -0.406160	           -0.159001	            4.613540	           -0.468808	          -31.270604	         1045.795801	          125.852050	           -0.236069	            0.005650	           -0.702893	            0.063617	           -2.127563	           -0.256033
            1.258500	          -37.249754	         1086.586379	         -110.212429	           -0.238974	            0.006226	           -0.406207	           -0.155901	            4.547687	           -0.461272	          -31.161262	         1041.379029	          125.132326	           -0.235765	            0.005651	           -0.703007	            0.062372	           -2.084423	           -0.250465
            1.259000	          -37.016914	         1080.453249	         -109.230441	           -0.238828	            0.006225	           -0.406033	           -0.154233	            4.501767	           -0.455115	          -30.719944	         1035.858384	          124.502363	           -0.235620	            0.005652	           -0.702963	            0.061989	           -2.090237	           -0.251231
            1.259500	          -36.829820	         1073.779098	         -108.250673	           -0.238590	            0.006225	           -0.406093	           -0.155441	            4.531907	           -0.456874	          -30.421873	         1031.074130	          123.781246	           -0.235407	            0.005653	           -0.703088	            0.059245	           -2.007946	           -0.241056
            1.260000	          -36.459177	         1068.005752	         -107.129924	           -0.238269	            0.006224	           -0.405809	           -0.155208	            4.546546	           -0.456057	          -30.075038	         1025.737986	          122.870410	           -0.235201	            0.005654	           -0.703049	            0.059573	           -2.031792	           -0.243383
            1.260500	          -36.271232	         1059.167505	         -105.975994	           -0.238042	            0.006226	           -0.406203	           -0.154150	            4.501387	           -0.450391	          -29.778543	         1021.324021	          121.587470	           -0.235080	            0.005654	           -0.703130	            0.055992	           -1.920389	           -0.228620
